Coordinates
nRows=9
nColumns=38

# SIMM Motion File Header:
name Coordinates
datacolumns 38
datarows 9
otherdata 1
range 2.21600000000000020000 2.22400000000000020000

Units are S.I. units (second, meters, Newtons, ...)
Angles are in degrees.

endheader
time	pelvis_tilt	pelvis_list	pelvis_rotation	pelvis_tx	pelvis_ty	pelvis_tz	hip_flexion_r	hip_adduction_r	hip_rotation_r	knee_angle_r	ankle_angle_r	subtalar_angle_r	mtp_angle_r	hip_flexion_l	hip_adduction_l	hip_rotation_l	knee_angle_l	ankle_angle_l	subtalar_angle_l	mtp_angle_l	lumbar_extension	lumbar_bending	lumbar_rotation	arm_flex_r	arm_add_r	arm_rot_r	elbow_flex_r	pro_sup_r	wrist_flex_r	wrist_dev_r	arm_flex_l	arm_add_l	arm_rot_l	elbow_flex_l	pro_sup_l	wrist_flex_l	wrist_dev_l
      2.21600000000000020000	     -1.37855896605901900000	     -2.21738909904342570000	     -0.19674269905275688000	      1.21637849794652550000	      0.96226374972824080000	     -0.33345348827663646000	      2.21071940338851030000	      8.42457841326194770000	      0.62980050210659078000	    -36.74787143755316500000	     22.56516144430791100000	     -0.00000000000001536591	     -0.00000000000000730851	     28.41228987277304400000	      2.41401978815071680000	     -0.09880354058153190100	    -99.51847622216175200000	     12.44398937941635800000	     -0.00000000000000283483	     -0.00000000000000310493	    -14.95385016591338900000	      5.89344878103122220000	     16.29155102929942700000	    -20.89223179139726800000	    -16.19752352614988300000	    -15.38526782716567200000	    135.50957672188233000000	     94.08734367214175600000	      0.00000000000000216716	      0.00000000000000080138	    -32.60746591940240100000	    -15.77675810256072700000	     -1.02019620839734660000	    107.58067731038338000000	     92.36291222716327800000	     -0.00000000000000209154	      0.00000000000001055072
      2.21700000000000010000	     -1.42238433292522750000	     -2.09405743345658070000	     -0.21916151257347050000	      1.21660759980620470000	      0.96278715714763030000	     -0.33336328908650753000	      1.82841224952674470000	      8.28316326227470330000	      0.75171046573924782000	    -36.42095673153357900000	     22.29979491269089200000	     -0.00000000000001554875	     -0.00000000000000731954	     28.65968900294607400000	      2.54524229157008410000	     -0.13313531532951631000	    -99.14532683722009700000	     12.45504801944865700000	     -0.00000000000000283622	     -0.00000000000000303081	    -14.86473135123517700000	      5.72887185947000790000	     16.44471529281484100000	    -20.84037858952849500000	    -16.18146776527230600000	    -15.30681175266293600000	    135.70692767274915000000	     94.22119034929812600000	      0.00000000000000219591	      0.00000000000000082373	    -32.86659540627303500000	    -15.85696087981809100000	     -1.10697871868543430000	    107.81654239945122000000	     92.30502708725936100000	     -0.00000000000000211717	      0.00000000000001068292
      2.21800000000000000000	     -1.46565076386259930000	     -1.96966977600254120000	     -0.24152728265466367000	      1.21684291617436860000	      0.96331725544157620000	     -0.33327540274403444000	      1.44453334386269060000	      8.13910998497155270000	      0.87311187088468756000	    -36.09028029693934100000	     22.02492564144266400000	     -0.00000000000001573197	     -0.00000000000000733091	     28.90232881777114600000	      2.67720113695292290000	     -0.16893231571038753000	    -98.76489954022302700000	     12.46530589548912200000	     -0.00000000000000283688	     -0.00000000000000296887	    -14.77570089112988700000	      5.56331895981169830000	     16.59517660400902300000	    -20.78837247870639300000	    -16.16819123748669500000	    -15.22367761813090300000	    135.90331863703335000000	     94.35369105391966100000	      0.00000000000000222429	      0.00000000000000084633	    -33.12832107663020800000	    -15.93571521785879200000	     -1.19665321795537620000	    108.05270418198766000000	     92.25045610896427200000	     -0.00000000000000214334	      0.00000000000001082203
      2.21900000000000030000	     -1.50836195763480620000	     -1.84427128296479960000	     -0.26378573255630494000	      1.21708437621666770000	      0.96385371623364557000	     -0.33318997631071579000	      1.05918704557458980000	      7.99245167005976320000	      0.99382964920169481000	    -35.75590388159185600000	     21.74058091841400000000	     -0.00000000000001588879	     -0.00000000000000735529	     29.14022918324721100000	      2.80991422141873800000	     -0.20606584063481884000	    -98.37736687719821300000	     12.47465875096891200000	     -0.00000000000000283609	     -0.00000000000000291288	    -14.68675548538099700000	      5.39686034325593940000	     16.74289038282012900000	    -20.73623110434772300000	    -16.15770644479879100000	    -15.13588760961869900000	    136.09869399669705000000	     94.48465258609233800000	      0.00000000000000225284	      0.00000000000000086961	    -33.39262906474421300000	    -16.01292572371278700000	     -1.28922059069336580000	    108.28904019670135000000	     92.19900132270404900000	     -0.00000000000000216884	      0.00000000000001096209
      2.22000000000000020000	     -1.55052753172553360000	     -1.71790637095766010000	     -0.28588721312176502000	      1.21733190064217680000	      0.96439620031349949000	     -0.33310714714688178000	      0.67248635655032873000	      7.84322491782618150000	      1.11369025313393030000	    -35.41789588332027000000	     21.44679325635934900000	     -0.00000000000001607439	     -0.00000000000000730664	     29.37341811533218200000	      2.94340156918955250000	     -0.24440797980624912000	    -97.98290013140220400000	     12.48301143695734100000	     -0.00000000000000283603	     -0.00000000000000285301	    -14.59788675331234000000	      5.22956350070640320000	     16.88781821575209500000	    -20.68397428907429600000	    -16.15002286982860000000	    -15.04346635792809100000	    136.29300082886357000000	     94.61390563279655900000	      0.00000000000000228104	      0.00000000000000089276	    -33.65950312110079100000	    -16.08849721747967400000	     -1.38467725298495230000	    108.52544069921859000000	     92.15045804479942100000	     -0.00000000000000219399	      0.00000000000001111556
      2.22100000000000010000	     -1.59216303197083600000	     -1.59061869096983680000	     -0.30778656496019913000	      1.21758540125275760000	      0.96494435837885006000	     -0.33302704265875666000	      0.28455275583616885000	      7.69146983124144870000	      1.23252180440003170000	    -35.07633157903634900000	     21.14360030563947400000	     -0.00000000000001626003	     -0.00000000000000723758	     29.60193176496738200000	      3.07768504350021210000	     -0.28383158736549879000	    -97.58166834981076900000	     12.49027901612507600000	     -0.00000000000000283581	     -0.00000000000000279642	    -14.50908125903473900000	      5.06149311370013950000	     17.02992765653303700000	    -20.63162357264338100000	    -16.14514705334203300000	    -14.94644075373297900000	    136.48618843739763000000	     94.74130587093766600000	      0.00000000000000231030	      0.00000000000000091460	    -33.92892443234917700000	    -16.16233481076637400000	     -1.48301514665215750000	    108.76180820277747000000	     92.10461648897990000000	     -0.00000000000000221848	      0.00000000000001127327
      2.22200000000000000000	     -1.63328986019005470000	     -1.46245111858581800000	     -0.32944298565533514000	      1.21784478059403760000	      0.96549783189995220000	     -0.33294978004239933000	     -0.10448404446211168000	      7.53723000611814340000	      1.35015426842308850000	    -34.73129333644718000000	     20.83104478289489600000	     -0.00000000000001646314	     -0.00000000000000712628	     29.82581425522756300000	      3.21278802724810710000	     -0.32421025773724566000	    -97.17383740839237300000	     12.49638745571279900000	     -0.00000000000000283331	     -0.00000000000000272855	    -14.42032061674361300000	      4.89271103461442000000	     17.16919203298777700000	    -20.57920177293352300000	    -16.14308266618533900000	    -14.84483981507295500000	    136.67820792272525000000	     94.86673453611727800000	      0.00000000000000234092	      0.00000000000000093516	    -34.20087147633947200000	    -16.23434401334641900000	     -1.58422177345769870000	    108.99805692790305000000	     92.06126330064056200000	     -0.00000000000000224300	      0.00000000000001142447
      2.22300000000000030000	     -1.67393501559332440000	     -1.33344577471440310000	     -0.35081991103411897000	      1.21810993185963820000	      0.96605625426604358000	     -0.33287546604582507000	     -0.49448652311926250000	      7.38055251013799920000	      1.46641968307941450000	    -34.38287077166219100000	     20.50917462931628400000	     -0.00000000000001668620	     -0.00000000000000696003	     30.04511718669049000000	      3.34873503622611230000	     -0.36541830596177965000	    -96.75956916126968100000	     12.50127339673893600000	     -0.00000000000000282959	     -0.00000000000000266550	    -14.33158177277969100000	      4.72327630850518790000	     17.30559026768563100000	    -20.52673260048865000000	    -16.14383056816355500000	    -14.73869467352250100000	    136.86901184077647000000	     94.99009778981616100000	      0.00000000000000237264	      0.00000000000000095350	    -34.47531996000864000000	    -16.30443090216648400000	     -1.68828031896619550000	    109.23411204910803000000	     92.02018291714534800000	     -0.00000000000000226789	      0.00000000000001158651
      2.22400000000000020000	     -1.71413074994516590000	     -1.20364406955164790000	     -0.37188485536933158000	      1.21838073891841740000	      0.96661925205083765000	     -0.33280419680023288000	     -0.88530986066947948000	      7.22148786264403600000	      1.58115236730255650000	    -34.03116087347694900000	     20.17804318572041600000	     -0.00000000000001692999	     -0.00000000000000675357	     30.25989900230344500000	      3.48555131480978500000	     -0.40733070449035735000	    -96.33902063599191500000	     12.50488350513602300000	     -0.00000000000000282472	     -0.00000000000000261058	    -14.24283736451322800000	      4.55324523346356000000	     17.43910666049383500000	    -20.47424029585976200000	    -16.14738885900408500000	    -14.62803861253040900000	    137.05855390087794000000	     95.11132555268301300000	      0.00000000000000240564	      0.00000000000000097062	    -34.75224279248625700000	    -16.37250232096073100000	     -1.79516981712295860000	    109.46990885224440000000	     91.98115884996495600000	     -0.00000000000000229328	      0.00000000000001175555
